<?xml version="1.0" encoding="UTF-8" standalone="no"?>
<svg
   height="96"
   width="96"
   version="1.1"
   id="svg2"
   inkscape:version="1.2.2 (b0a8486541, 2022-12-01)"
   sodipodi:docname="fingwit.svg"
   xmlns:inkscape="http://www.inkscape.org/namespaces/inkscape"
   xmlns:sodipodi="http://sodipodi.sourceforge.net/DTD/sodipodi-0.dtd"
   xmlns:xlink="http://www.w3.org/1999/xlink"
   xmlns="http://www.w3.org/2000/svg"
   xmlns:svg="http://www.w3.org/2000/svg"
   xmlns:rdf="http://www.w3.org/1999/02/22-rdf-syntax-ns#"
   xmlns:cc="http://creativecommons.org/ns#"
   xmlns:dc="http://purl.org/dc/elements/1.1/">
  <metadata
     id="metadata782">
    <rdf:RDF>
      <cc:Work
         rdf:about="">
        <dc:format>image/svg+xml</dc:format>
        <dc:type
           rdf:resource="http://purl.org/dc/dcmitype/StillImage" />
        <dc:title />
      </cc:Work>
    </rdf:RDF>
  </metadata>
  <sodipodi:namedview
     pagecolor="#ffffff"
     bordercolor="#666666"
     borderopacity="1"
     objecttolerance="10"
     gridtolerance="10"
     guidetolerance="10"
     inkscape:pageopacity="0"
     inkscape:pageshadow="2"
     inkscape:window-width="1440"
     inkscape:window-height="888"
     id="namedview780"
     showgrid="false"
     inkscape:zoom="6.9532167"
     inkscape:cx="41.203951"
     inkscape:cy="47.963412"
     inkscape:window-x="0"
     inkscape:window-y="0"
     inkscape:window-maximized="1"
     inkscape:current-layer="svg2"
     inkscape:showpageshadow="2"
     inkscape:pagecheckerboard="0"
     inkscape:deskcolor="#d1d1d1" />
  <defs
     id="defs4">
    <linearGradient
       id="e">
      <stop
         stop-color="#b0b0b0"
         offset="0"
         id="stop7" />
      <stop
         stop-color="#f5f5f5"
         offset="1"
         id="stop9" />
    </linearGradient>
    <linearGradient
       id="a"
       stop-color="#fff">
      <stop
         offset="0"
         id="stop12" />
      <stop
         stop-opacity="0"
         offset="1"
         id="stop14" />
    </linearGradient>
    <filter
       id="i"
       height="1.384"
       width="1.384"
       color-interpolation-filters="sRGB"
       y="-.192"
       x="-.192">
      <feGaussianBlur
         stdDeviation="5.28"
         id="feGaussianBlur17" />
    </filter>
    <linearGradient
       id="j"
       y2="138.66"
       xlink:href="#a"
       gradientUnits="userSpaceOnUse"
       x2="48"
       y1="20.221"
       x1="48" />
    <clipPath
       id="f">
      <rect
         rx="6"
         ry="6"
         height="84"
         width="84"
         y="6"
         x="6"
         fill="#fff"
         id="rect21" />
    </clipPath>
    <linearGradient
       id="d"
       y2="7.0165"
       gradientUnits="userSpaceOnUse"
       x2="45.448"
       gradientTransform="matrix(1.0059 0 0 .99417 100 0)"
       y1="92.54"
       x1="45.448">
      <stop
         offset="0"
         id="stop24" />
      <stop
         stop-opacity=".58824"
         offset="1"
         id="stop26" />
    </linearGradient>
    <clipPath
       id="g">
      <rect
         rx="8.0455"
         ry="8.0455"
         height="112.64"
         width="112.64"
         y="7.6818"
         x="27.682"
         fill="#fff"
         id="rect29" />
    </clipPath>
    <linearGradient
       id="v"
       y2="6"
       xlink:href="#d"
       gradientUnits="userSpaceOnUse"
       x2="32.251"
       gradientTransform="translate(0,1)"
       y1="90"
       x1="32.251" />
    <radialGradient
       id="h"
       xlink:href="#a"
       gradientUnits="userSpaceOnUse"
       cy="90.172"
       cx="48"
       gradientTransform="matrix(1.1573 0 0 .99591 -7.551 .19713)"
       r="42" />
    <linearGradient
       id="u"
       y2="63.893"
       xlink:href="#a"
       gradientUnits="userSpaceOnUse"
       x2="36.357"
       y1="6"
       x1="36.357" />
    <linearGradient
       id="t"
       y2="6"
       gradientUnits="userSpaceOnUse"
       x2="48"
       gradientTransform="translate(.002534 .002375)"
       y1="90"
       x1="48">
      <stop
         stop-color="#8f6033"
         offset="0"
         id="stop35" />
      <stop
         stop-color="#a87849"
         offset="1"
         id="stop37" />
    </linearGradient>
    <linearGradient
       id="s"
       y2="31.657"
       gradientUnits="userSpaceOnUse"
       x2="49.996"
       y1="71.738"
       x1="49.996">
      <stop
         stop-color="#bf2222"
         offset="0"
         id="stop40" />
      <stop
         stop-color="#e94c4c"
         offset="1"
         id="stop42" />
    </linearGradient>
    <linearGradient
       id="r"
       y2="24"
       gradientUnits="userSpaceOnUse"
       x2="40"
       gradientTransform="matrix(1,0,0,1.125,0,-10.5)"
       y1="80"
       x1="56">
      <stop
         stop-color="#e7e7e7"
         offset="0"
         id="stop45" />
      <stop
         stop-color="#fff"
         offset="1"
         id="stop47" />
    </linearGradient>
    <linearGradient
       id="q"
       y2="6"
       xlink:href="#e"
       gradientUnits="userSpaceOnUse"
       x2="51"
       gradientTransform="matrix(0,-1,1,0,42,54)"
       y1="6"
       x1="45" />
    <linearGradient
       id="p"
       y2="6"
       xlink:href="#e"
       gradientUnits="userSpaceOnUse"
       x2="52"
       gradientTransform="matrix(0,1,-1,0,54,-42)"
       y1="6"
       x1="44" />
    <linearGradient
       id="o"
       y2="5"
       gradientUnits="userSpaceOnUse"
       x2="53"
       gradientTransform="matrix(0,-1,1,0,43,54)"
       y1="5"
       x1="43">
      <stop
         stop-color="#848484"
         offset="0"
         id="stop52" />
      <stop
         stop-color="#f5f5f5"
         offset="1"
         id="stop54" />
    </linearGradient>
    <linearGradient
       id="n"
       y2="15.055"
       xlink:href="#a"
       gradientUnits="userSpaceOnUse"
       x2="36"
       y1="6"
       x1="36" />
    <linearGradient
       id="m"
       y2="6"
       gradientUnits="userSpaceOnUse"
       x2="37"
       y1="16"
       x1="37">
      <stop
         stop-color="#3b3b3b"
         offset="0"
         id="stop58" />
      <stop
         stop-color="#aeaeae"
         offset=".12203"
         id="stop60" />
      <stop
         stop-color="#e9e9e9"
         offset=".24519"
         id="stop62" />
      <stop
         stop-color="#8a8a8a"
         offset=".44692"
         id="stop64" />
      <stop
         stop-color="#f0f0f0"
         offset="1"
         id="stop66" />
    </linearGradient>
    <linearGradient
       id="l"
       y2="5.9996"
       xlink:href="#d"
       gradientUnits="userSpaceOnUse"
       x2="32.251"
       gradientTransform="matrix(1.0238 0 0 1.0119 -1.1429 .929)"
       y1="90"
       x1="32.251" />
    <linearGradient
       id="k"
       y2="90.239"
       xlink:href="#d"
       gradientUnits="userSpaceOnUse"
       x2="32.251"
       gradientTransform="matrix(1.0238,0,0,-1.0119,-1.1429,98.071)"
       y1="6.1317"
       x1="32.251" />
    <linearGradient
       id="f-3"
       y2="1.0923001"
       gradientUnits="userSpaceOnUse"
       x2="6.6201"
       gradientTransform="matrix(-3.5754836,0,0,3.0823052,74.390602,19.873355)"
       y1="16.385"
       x1="6.6201"
       spreadMethod="pad">
      <stop
         stop-color="#dcdcdc"
         offset="0"
         id="stop27" />
      <stop
         stop-color="#ebebeb"
         offset=".30654"
         id="stop29" />
      <stop
         stop-color="#fff"
         offset=".70706"
         id="stop31" />
      <stop
         stop-color="#fafafa"
         offset=".84501"
         id="stop33" />
      <stop
         stop-color="#f0f0f0"
         offset="1"
         id="stop35-6" />
    </linearGradient>
    <filter
       style="color-interpolation-filters:sRGB"
       id="filter3899">
      <feGaussianBlur
         id="feGaussianBlur3901"
         stdDeviation="0.57" />
    </filter>
    <linearGradient
       x1="12"
       y1="4.5"
       x2="12"
       y2="20.5"
       id="linearGradient3182"
       xlink:href="#linearGradient3655"
       gradientUnits="userSpaceOnUse"
       gradientTransform="matrix(4,0,0,4,0,-82)" />
    <linearGradient
       id="linearGradient3655">
      <stop
         id="stop3657"
         style="stop-color:#ad0707;stop-opacity:1"
         offset="0" />
      <stop
         id="stop3659"
         style="stop-color:#f75535;stop-opacity:1"
         offset="1" />
    </linearGradient>
    <linearGradient
       id="outerBackgroundGradient-8">
      <stop
         style="stop-color:#465674;stop-opacity:1"
         offset="0"
         id="stop3864-8-6-9" />
      <stop
         style="stop-color:#798bac;stop-opacity:1"
         offset="1"
         id="stop3866-9-1-0" />
    </linearGradient>
    <linearGradient
       inkscape:collect="always"
       xlink:href="#linearGradient4436"
       id="linearGradient7328"
       gradientUnits="userSpaceOnUse"
       gradientTransform="matrix(0,-0.39261645,0.39261645,0,-13.24816,104.53677)"
       x1="35"
       y1="156"
       x2="253"
       y2="156" />
    <linearGradient
       id="outerBackgroundGradient-43">
      <stop
         style="stop-color:#2c333d;stop-opacity:1"
         offset="0"
         id="stop3864-8-6-744" />
      <stop
         style="stop-color:#485362;stop-opacity:1"
         offset="1"
         id="stop3866-9-1-541" />
    </linearGradient>
    <clipPath
       clipPathUnits="userSpaceOnUse"
       id="clipPath4492">
      <path
         id="path4494"
         d="m 15.562635,9.6015624 c -3.857522,0 -6.9609379,3.1034156 -6.9609379,6.9609376 v 16.875 c 0,3.857522 3.1034159,6.960937 6.9609379,6.960937 h 16.875 c 3.857522,0 6.960937,-3.103415 6.960937,-6.960937 v -16.875 c 0,-3.857522 -3.103415,-6.9609376 -6.960937,-6.9609376 z"
         style="color:#bebebe;display:inline;overflow:visible;visibility:visible;opacity:0.5;fill:#b35151;fill-opacity:1;fill-rule:nonzero;stroke:none;stroke-width:2;marker:none;enable-background:accumulate"
         inkscape:connector-curvature="0" />
    </clipPath>
    <linearGradient
       id="linearGradient3929">
      <stop
         style="stop-color:#f6a602;stop-opacity:1;"
         offset="0"
         id="stop3931" />
      <stop
         style="stop-color:#ffb621;stop-opacity:1;"
         offset="1"
         id="stop3933" />
    </linearGradient>
    <clipPath
       clipPathUnits="userSpaceOnUse"
       id="clipPath10483">
      <path
         inkscape:connector-curvature="0"
         id="path10485"
         d="m 84,46.500023 c -27.43126,0 -49.5,22.06873 -49.5,49.5 V 216.00002 c 0,27.43127 22.06874,49.5 49.5,49.5 h 120 c 27.43127,0 49.5,-22.06873 49.5,-49.5 V 96.000023 c 0,-27.43127 -22.06873,-49.5 -49.5,-49.5 z"
         style="color:#bebebe;display:inline;overflow:visible;visibility:visible;opacity:0.5;fill:#bf4f4f;fill-opacity:1;fill-rule:nonzero;stroke:none;stroke-width:2;marker:none;enable-background:accumulate" />
    </clipPath>
    <linearGradient
       id="outerBackgroundGradient-1">
      <stop
         style="stop-color:#383177;stop-opacity:1"
         offset="0"
         id="stop3864-8-6-21" />
      <stop
         style="stop-color:#6d66b2;stop-opacity:1"
         offset="1"
         id="stop3866-9-1-46" />
    </linearGradient>
    <linearGradient
       id="linearGradient4436">
      <stop
         id="stop4438"
         offset="0"
         style="stop-color:#4200cc;stop-opacity:1;" />
      <stop
         id="stop4440"
         offset="1"
         style="stop-color:#9b80cd;stop-opacity:1;" />
    </linearGradient>
  </defs>
  <path
     inkscape:connector-curvature="0"
     style="color:#bebebe;display:inline;overflow:visible;visibility:visible;fill:url(#linearGradient7328);fill-opacity:1.0;fill-rule:nonzero;stroke:none;stroke-width:0.7852329;marker:none;enable-background:accumulate"
     d="m 24.44301,5.008498 c -10.76996,0 -19.43451,8.664547 -19.43451,19.434514 v 47.11398 c 0,10.76996 8.66455,19.43451 19.43451,19.43451 h 47.11398 c 10.76996,0 19.43451,-8.66455 19.43451,-19.43451 v -47.11398 c 0,-10.769967 -8.66455,-19.434514 -19.43451,-19.434514 z"
     id="path4200-3" />
  <g
     style="display:inline;enable-background:new"
     id="g3503"
     transform="matrix(2.7919391,0,0,2.7919391,-19.006914,-21.798477)"
     clip-path="url(#clipPath4492)" />
  <path
     d="m 48.238561,22.286251 c -3.867187,-0.03767 -7.734375,0.916573 -11.22489,2.862723 -1.544365,0.86635 -2.096817,2.825055 -1.230467,4.36942 0.86635,1.556919 2.825055,2.109375 4.36942,1.243025 4.984652,-2.78739 11.049107,-2.724611 15.983537,0.163222 4.921875,2.887836 7.935268,8.148716 7.935268,13.861607 v 3.214285 c 0,1.770368 1.443917,3.214286 3.214285,3.214286 1.770367,0 3.214286,-1.443918 3.214286,-3.214286 v -3.214285 c 0,-0.06278 0,-0.12555 -0.01254,-0.17579 C 70.424689,36.700304 66.205933,29.380269 59.375576,25.374971 55.935287,23.353484 52.093213,22.323909 48.226022,22.286242 Z m -16.711775,9.102957 c -0.213461,0 -0.426896,0.02507 -0.627789,0.07534 -0.828684,0.188325 -1.556923,0.703125 -2.008928,1.43136 C 26.680247,36.461757 25.5,40.58006 25.5,44.786255 v 16.272322 c 0,1.770367 1.443919,3.214285 3.214286,3.214285 1.770368,0 3.214285,-1.443918 3.214285,-3.214285 V 44.786258 c 0,-3.000839 0.84124,-5.95145 2.42327,-8.500279 0.941685,-1.506696 0.477122,-3.477956 -1.029575,-4.419642 -0.5399,-0.339008 -1.167692,-0.502233 -1.79548,-0.477123 z M 48,31.929108 c -7.068919,0 -12.857143,5.788225 -12.857143,12.857143 v 3.214286 c 0,1.770367 1.443918,3.214286 3.214286,3.214286 1.770367,0 3.214286,-1.443919 3.214286,-3.214286 v -3.214286 c 0,-3.590962 2.83761,-6.428572 6.428571,-6.428572 3.590961,0 6.428571,2.83761 6.428571,6.428572 v 16.071428 c 0,0 0.02507,1.418805 0.56501,3.025949 0.539901,1.607143 1.607144,3.691408 3.590963,5.675223 1.25558,1.25558 3.289618,1.25558 4.545198,0 1.255581,-1.25558 1.255581,-3.289619 0,-4.545199 -1.230467,-1.230471 -1.770367,-2.360491 -2.034038,-3.164063 -0.263668,-0.803571 -0.238564,-0.99191 -0.238564,-0.99191 V 44.786251 c 0,-7.068918 -5.788225,-12.857143 -12.857144,-12.857143 z m 0,9.642858 c -1.770368,0 -3.214286,1.443917 -3.214286,3.214285 v 16.071428 c 0,0 0,1.908483 0.464565,4.24386 0.464563,2.335382 1.330916,5.311107 3.691407,7.671598 1.25558,1.25558 3.289619,1.25558 4.545199,0 1.255581,-1.255581 1.255581,-3.289619 0,-4.5452 -0.853794,-0.853794 -1.594584,-2.699499 -1.933591,-4.381974 -0.339008,-1.68248 -0.339008,-2.988284 -0.339008,-2.988284 V 44.786251 c 0,-1.770368 -1.443918,-3.214285 -3.214286,-3.214285 z m -9.642857,12.857142 c -1.770368,0 -3.214286,1.443919 -3.214286,3.214286 v 9.642857 c 0,1.770367 1.443918,3.214286 3.214286,3.214286 1.770367,0 3.214286,-1.443919 3.214286,-3.214286 v -9.642857 c 0,-1.770367 -1.443919,-3.214286 -3.214286,-3.214286 z m 28.928571,0 c -1.770368,0 -3.214285,1.443919 -3.214285,3.214286 0,1.770368 1.443917,3.214285 3.214285,3.214285 1.770367,0 3.214286,-1.443917 3.214286,-3.214285 0,-1.770367 -1.443919,-3.214286 -3.214286,-3.214286 z m 0,0"
     fill="#2e3434"
     id="path244"
     style="opacity:0.2;fill:#000000;fill-opacity:1;stroke-width:3.21429" />
  <path
     d="m 48.238561,21.286073 c -3.867187,-0.03767 -7.734375,0.916573 -11.22489,2.862723 -1.544365,0.86635 -2.096817,2.825055 -1.230467,4.36942 0.86635,1.556919 2.825055,2.109375 4.36942,1.243025 4.984652,-2.78739 11.049107,-2.724611 15.983537,0.163222 4.921875,2.887836 7.935268,8.148716 7.935268,13.861607 v 3.214285 c 0,1.770368 1.443917,3.214286 3.214285,3.214286 1.770367,0 3.214286,-1.443918 3.214286,-3.214286 V 43.78607 c 0,-0.06278 0,-0.12555 -0.01254,-0.17579 C 70.424689,35.700126 66.205933,28.380091 59.375576,24.374793 55.935287,22.353306 52.093213,21.323731 48.226022,21.286064 Z M 31.526786,30.38903 c -0.213461,0 -0.426896,0.02507 -0.627789,0.07534 -0.828684,0.188325 -1.556923,0.703125 -2.008928,1.43136 C 26.680247,35.461579 25.5,39.579882 25.5,43.786077 v 16.272322 c 0,1.770367 1.443919,3.214285 3.214286,3.214285 1.770368,0 3.214285,-1.443918 3.214285,-3.214285 V 43.78608 c 0,-3.000839 0.84124,-5.95145 2.42327,-8.500279 0.941685,-1.506696 0.477122,-3.477956 -1.029575,-4.419642 -0.5399,-0.339008 -1.167692,-0.502233 -1.79548,-0.477123 z M 48,30.92893 c -7.068919,0 -12.857143,5.788225 -12.857143,12.857143 v 3.214286 c 0,1.770367 1.443918,3.214286 3.214286,3.214286 1.770367,0 3.214286,-1.443919 3.214286,-3.214286 v -3.214286 c 0,-3.590962 2.83761,-6.428572 6.428571,-6.428572 3.590961,0 6.428571,2.83761 6.428571,6.428572 v 16.071428 c 0,0 0.02507,1.418805 0.56501,3.025949 0.539901,1.607143 1.607144,3.691408 3.590963,5.675223 1.25558,1.25558 3.289618,1.25558 4.545198,0 1.255581,-1.25558 1.255581,-3.289619 0,-4.545199 -1.230467,-1.230471 -1.770367,-2.360491 -2.034038,-3.164063 -0.263668,-0.803571 -0.238564,-0.99191 -0.238564,-0.99191 V 43.786073 c 0,-7.068918 -5.788225,-12.857143 -12.857144,-12.857143 z m 0,9.642858 c -1.770368,0 -3.214286,1.443917 -3.214286,3.214285 v 16.071428 c 0,0 0,1.908483 0.464565,4.24386 0.464563,2.335382 1.330916,5.311107 3.691407,7.671598 1.25558,1.25558 3.289619,1.25558 4.545199,0 1.255581,-1.255581 1.255581,-3.289619 0,-4.5452 -0.853794,-0.853794 -1.594584,-2.699499 -1.933591,-4.381974 -0.339008,-1.68248 -0.339008,-2.988284 -0.339008,-2.988284 V 43.786073 c 0,-1.770368 -1.443918,-3.214285 -3.214286,-3.214285 z M 38.357143,53.42893 c -1.770368,0 -3.214286,1.443919 -3.214286,3.214286 v 9.642857 c 0,1.770367 1.443918,3.214286 3.214286,3.214286 1.770367,0 3.214286,-1.443919 3.214286,-3.214286 v -9.642857 c 0,-1.770367 -1.443919,-3.214286 -3.214286,-3.214286 z m 28.928571,0 c -1.770368,0 -3.214285,1.443919 -3.214285,3.214286 0,1.770368 1.443917,3.214285 3.214285,3.214285 1.770367,0 3.214286,-1.443917 3.214286,-3.214285 0,-1.770367 -1.443919,-3.214286 -3.214286,-3.214286 z m 0,0"
     fill="#2e3434"
     id="path244-3"
     style="fill:#ffffff;fill-opacity:1;stroke-width:3.21429" />
</svg>
